<svg width="120" height="120" viewBox="0 0 120 120" fill="none" xmlns="http://www.w3.org/2000/svg">
<path d="M56.0396 100C56.0396 97.8 57.8182 96 60.0396 96C62.2382 96 64.0382 97.7787 64.0382 100C64.0382 102.199 62.2596 104 60.0396 104C57.8396 104 56.0396 102.199 56.0396 100Z" fill="#D0CECE"/>
<path d="M43.2201 100.68C41.1588 99.84 40.1988 97.5 41.0401 95.4586C41.8801 93.42 44.2201 92.44 46.2601 93.2786C48.3001 94.12 49.2801 96.4586 48.4401 98.52C47.8001 100.06 46.3001 100.981 44.7401 100.981C44.2201 100.98 43.6988 100.879 43.2201 100.68Z" fill="#D0CECE"/>
<path d="M71.6389 98.4799C70.8002 96.4399 71.7615 94.0986 73.8002 93.2599C75.8402 92.4186 78.1802 93.3786 79.0402 95.4186C79.8802 97.4573 78.9202 99.7986 76.8802 100.637C76.3802 100.859 75.8602 100.957 75.3415 100.957C73.7789 100.959 72.2789 100.02 71.6389 98.4799Z" fill="#D0CECE"/>
<path d="M28.9398 91.1601C27.3811 89.5987 27.3598 87.0601 28.9198 85.5001C30.4785 83.9401 33.0198 83.9401 34.5798 85.5001C36.1385 87.0601 36.1385 89.5814 34.5998 91.1387C33.8198 91.9414 32.7798 92.3214 31.7598 92.3214C30.7398 92.3201 29.7198 91.9401 28.9398 91.1601Z" fill="#D0CECE"/>
<path d="M85.4803 91.0985C83.9003 89.5385 83.9003 86.9998 85.4577 85.4398C87.019 83.8785 89.559 83.8785 91.119 85.4398C92.679 86.9998 92.679 89.5385 91.119 91.0985C90.339 91.8785 89.319 92.2598 88.299 92.2598C87.279 92.2598 86.2603 91.8785 85.4803 91.0985Z" fill="#D0CECE"/>
<path d="M19.3801 76.9186C18.5187 74.8786 19.4787 72.5386 21.5187 71.6786C23.5587 70.8386 25.8987 71.7986 26.7587 73.8386C27.5987 75.8773 26.6387 78.2173 24.5987 79.0586C24.0987 79.2773 23.5787 79.3773 23.0587 79.3773C21.5001 79.3786 20.0201 78.4586 19.3801 76.9186Z" fill="#D0CECE"/>
<path d="M95.44 78.9998C93.4013 78.1384 92.4187 75.7998 93.2787 73.7598C94.12 71.7184 96.4587 70.7598 98.5 71.5984C100.539 72.4398 101.5 74.7984 100.66 76.8398C100.02 78.3784 98.5387 79.2998 96.9587 79.2998C96.4587 79.2998 95.94 79.1984 95.44 78.9998Z" fill="#D0CECE"/>
<path d="M16 60.1001C16 57.8801 17.7787 56.0801 20 56.0801C22.1987 56.0801 24 57.8587 24 60.0801C24 62.2787 22.22 64.0801 20 64.0801C17.8 64.0814 16 62.3001 16 60.1001Z" fill="#D0CECE"/>
<path d="M96.0002 60C96.0002 59.94 96.0002 59.9 96.0002 59.86C95.9802 57.64 97.7788 55.84 99.9802 55.84C102.179 55.8187 103.98 57.6 104 59.8187C104 59.8587 104 59.88 104 59.92C104 59.94 104 59.9787 104 60C104 62.1987 102.199 64 100 64C97.8002 64 96.0002 62.1987 96.0002 60Z" fill="#D0CECE"/>
<path d="M21.4789 48.4787C19.4389 47.6387 18.4589 45.2987 19.2989 43.2587C20.1389 41.1987 22.4789 40.2387 24.5189 41.0787C26.5589 41.9187 27.5402 44.2587 26.6989 46.2987C26.0602 47.8387 24.5602 48.7787 23.0002 48.7787C22.5002 48.7787 21.9789 48.68 21.4789 48.4787Z" fill="#D0CECE"/>
<path d="M93.2189 46.1C92.3589 44.06 93.3203 41.72 95.3589 40.86C97.4003 40 99.7389 40.96 100.599 43C101.44 45.04 100.48 47.38 98.4589 48.24C97.9403 48.44 97.4203 48.5413 96.9016 48.5413C95.3403 48.54 93.8603 47.62 93.2189 46.1Z" fill="#D0CECE"/>
<path d="M28.8187 34.62C27.26 33.06 27.2387 30.54 28.7987 28.96C28.7987 28.96 28.7987 28.96 28.8187 28.96C30.3587 27.4 32.9 27.4 34.4587 28.96C36.0187 30.5 36.04 33.0414 34.4787 34.62C33.6987 35.4 32.6787 35.78 31.6387 35.78C30.62 35.7787 29.6 35.4 28.8187 34.62Z" fill="#D0CECE"/>
<path d="M85.3602 34.4601C83.8002 32.9001 83.7789 30.3601 85.3402 28.8001C86.9016 27.2201 89.4402 27.2201 91.0002 28.7801C92.5602 30.3401 92.5816 32.8601 91.0202 34.4401C90.2402 35.2201 89.2189 35.6201 88.1802 35.6201C87.1602 35.6201 86.1389 35.2201 85.3602 34.4601Z" fill="#D0CECE"/>
<path d="M40.8998 24.62C40.0398 22.58 40.9998 20.24 43.0398 19.38C45.0798 18.54 47.4198 19.5 48.2785 21.54C49.1185 23.58 48.1585 25.92 46.1185 26.7787C45.6185 26.9787 45.0985 27.08 44.5785 27.08C43.0198 27.08 41.5398 26.1587 40.8998 24.62Z" fill="#D0CECE"/>
<path d="M73.6597 26.6801C71.6197 25.8401 70.637 23.5001 71.4797 21.4601C72.3197 19.4201 74.6597 18.4401 76.6984 19.2801C78.7384 20.1201 79.7184 22.4601 78.8784 24.5014C78.2397 26.0414 76.7597 26.9801 75.1797 26.9801C74.6797 26.9788 74.1597 26.8801 73.6597 26.6801Z" fill="#D0CECE"/>
<path d="M55.8796 20.02C55.8596 17.8 57.6582 16 59.8596 16C62.0809 16 63.8596 17.7787 63.8796 19.9787C63.8796 22.1987 62.0996 24 59.8809 24C57.6582 24 55.8796 22.22 55.8796 20.02Z" fill="#D0CECE"/>
</svg>