<svg viewBox="0 0 600 600" fill="none" xmlns="http://www.w3.org/2000/svg">
<path d="M174.882 520C160.961 520 149.167 515.139 139.5 505.417C129.833 495.694 125 483.889 125 470V330C125 316.111 129.873 304.306 139.618 294.583C149.363 284.861 161.196 280 175.118 280C189.039 280 200.833 284.861 210.5 294.583C220.167 304.306 225 316.111 225 330V470C225 483.889 220.127 495.694 210.382 505.417C200.637 515.139 188.804 520 174.882 520ZM424.882 520C410.961 520 399.167 515.139 389.5 505.417C379.833 495.694 375 483.889 375 470V130C375 116.111 379.873 104.306 389.618 94.583C399.363 84.861 411.196 80 425.118 80C439.039 80 450.833 84.861 460.5 94.583C470.167 104.306 475 116.111 475 130V470C475 483.889 470.127 495.694 460.382 505.417C450.637 515.139 438.804 520 424.882 520Z" fill="black"/>
</svg>
